<svg xmlns="http://www.w3.org/2000/svg" viewBox="0 0 656.83 549.71"><defs><style>.cls-1{fill:#ddebfb;}.cls-2{fill:#6ca8fa;}.cls-3{fill:#056cfa;}.cls-4{fill:#fff;}.cls-5{fill:none;}.cls-6{fill:#ff8b00;}</style></defs><g id="Capa_2" data-name="Capa 2"><g id="Capa_1-2" data-name="Capa 1"><path class="cls-1" d="M49.55,504.06s.15,14.76-.2,19.66c-.46,6.34-3.21,24-3.21,24H74.22s-3.45-15.92-4-21.37c-.61-5.7-.6-22.89-.6-22.89Z"/><path class="cls-2" d="M66.24,79S63.4,60.65,54.41,64.35,38,121.42,38,121.42,23.18,112.79,24,132c.58,13.21,9.31,36.2,9.31,36.2s-15.92-17.71-18-.27,12.15,46.13,12.15,46.13-8.81-5.47-14.19-1.75c-4,2.74-4,9.79.72,19.56C23.5,251.42,24,253,24,253S5.27,237.68,5.27,250.89s9.51,34.35,9.51,34.35S2.7,274.09,2.63,286.29C2.52,303.05,19,349.44,19,349.44s-14.67-21-17.44-8.72c-4.45,19.67,19,73.46,19,73.46S-4.51,401,6.06,419.46s22.2,29.07,22.2,29.07-19.62.13-9.58,14.93c2.12,3.13,9.63,10.88,12,14,.25.33-2.46-.18-3.57.49s-.77,2.63-.5,3c8.34,10.64,18,18.79,23.06,21.53,6.87,3.7,25.78,6,43.33-12.82,5.35-5.74.23-10.33,1.39-11.69,28.42-33.29,2.31-27.28,2.31-27.28s16.38-21.14,19.55-38.31c2.42-13.09-16.91-.27-16.91-.27s31.39-65.25,21.93-71.07c-6.87-4.23-19.29,11.89-19.29,11.89s25.9-57.07,20.08-69.76-15.58,5.55-15.58,5.55S117,266.54,117.56,252.8s-11.29-7.72-17.63-1.38c0,0,18.76-33.93,7.53-41.42-5.35-3.57-14.87.59-14.87.59s21.93-33.29,15.06-44.39-16.18-.12-16.18-.12,10.86-23.79,12.22-35.3c.88-7.42-1.25-18.21-7.27-20.06-7.72-2.38-13.73,7.66-13.73,7.66S85,71.71,77.63,69C67.11,65.2,66.24,79,66.24,79Z"/><path class="cls-3" d="M59.72,505.24c-4.48,0-8.23-.73-10.52-2-3.93-2.12-13.6-8.94-22.08-19.63a1,1,0,1,1,1.52-1.21c8.28,10.45,17.67,17.08,21.48,19.14,6.08,3.26,27.48,2.71,40-10.45a1,1,0,1,1,1.4,1.33C82.67,501.77,69.48,505.24,59.72,505.24Z"/><path class="cls-3" d="M36.32,482.46a1,1,0,0,1-.77-.37,52.54,52.54,0,0,0-6.41-6.26c-3.8-3.33-8.12-7.11-11.67-12.43-3-4.45-3.68-8.1-2.15-10.88,2-3.67,7.48-4.63,10.64-4.88a137.47,137.47,0,0,1-20.74-27.7c-2.89-5.05-3.47-8.37-1.77-10.12,3.48-3.63,15.27,2.28,17.59,3.5a1,1,0,0,1,.41,1.31,1,1,0,0,1-1.31.41c-5.24-2.77-13.47-5.8-15.3-3.87-.45.47-1.17,2.17,2.06,7.81,10.37,18.14,21.89,28.73,22,28.83a1,1,0,0,1-.65,1.69s0,0-.23,0c-1.35,0-8.9.18-11,4-1.15,2.08-.46,5.06,2.07,8.85,3.4,5.11,7.61,8.8,11.32,12.05a53.86,53.86,0,0,1,6.67,6.52,1,1,0,0,1-.76,1.57Z"/><path class="cls-3" d="M15.8,402a1,1,0,0,1-.88-.56c-.76-1.64-18.41-40.35-14.3-60.89.53-2.66,1.68-4.2,3.43-4.57,5.49-1.21,14.72,11.47,15.75,12.91A1,1,0,1,1,18.22,350c-3.61-5.07-10.56-12.87-13.77-12.14-.92.19-1.56,1.22-1.93,3-4,19.94,14,59.32,14.16,59.71a1,1,0,0,1-.48,1.29A1,1,0,0,1,15.8,402Z"/><path class="cls-3" d="M19,350.41a1,1,0,0,1-.9-.61c-.74-1.84-18-45.34-16.45-63.59.3-3.48,1.45-5.61,3.42-6.32,4.11-1.48,9.75,4,10.38,4.66a1,1,0,0,1-1.37,1.37c-1.37-1.38-5.87-5.09-8.35-4.21-1.49.54-2,2.84-2.15,4.67C2,304.17,19.73,348.64,19.91,349.09a1,1,0,0,1-.54,1.26A1.13,1.13,0,0,1,19,350.41Z"/><path class="cls-3" d="M11.61,277a1,1,0,0,1-.86-.51c-.26-.5-6.45-12.26-6.45-25.56,0-3,.93-5,2.77-5.87,3.84-1.82,10.57,2.16,14.53,4.94-1.34-2.86-3.83-8.12-8.48-17.67s-4.89-17.19-.71-20.58c3.61-2.93,9.75-1.85,15.65,2.75A1,1,0,1,1,26.87,216c-5.16-4-10.36-5.09-13.24-2.76-3.43,2.78-3,9.59,1.23,18.22,9.27,19.06,10,21.09,10.09,21.25a1,1,0,0,1-.38,1.11,1,1,0,0,1-1.16-.05c-3.08-2.52-11.86-8.7-15.51-7-1.1.52-1.66,1.91-1.66,4.12,0,12.8,6.16,24.53,6.22,24.65a1,1,0,0,1-.4,1.31A1,1,0,0,1,11.61,277Z"/><path class="cls-3" d="M29.57,220.68a1,1,0,0,1-.87-.55c-.67-1.42-16.48-34.81-14.35-52.32.56-4.67,2.18-7.46,4.8-8.29,5.85-1.87,14,7,14.91,8A1,1,0,0,1,34,168.9a1,1,0,0,1-1.37-.07c-2.25-2.5-9-8.69-12.89-7.46-1.83.58-3,2.82-3.46,6.67-2,17,14,50.91,14.18,51.25a1,1,0,0,1-.46,1.29A.9.9,0,0,1,29.57,220.68Z"/><path class="cls-3" d="M30,158.26a1,1,0,0,1-.89-.6,90.11,90.11,0,0,1-6-25.61c-.39-6.16.92-10.26,3.9-12.18,3.47-2.22,8.12-.78,10.3.13.88-5.89,4.53-29.85,6.7-38.19C47,70,50.85,63.53,55.32,62.6c3.59-.74,6,2.35,6.15,2.48A1,1,0,0,1,60,66.28S58.14,64,55.69,64.5c-2.07.44-6.1,3.34-9.85,17.79-2.4,9.25-6.81,39-6.85,39.27a1,1,0,0,1-.52.72.94.94,0,0,1-.89,0c-.07,0-5.95-3.12-9.57-.76-2.35,1.51-3.36,5-3,10.42a87.93,87.93,0,0,0,5.88,25,1,1,0,0,1-.52,1.27A1,1,0,0,1,30,158.26Z"/><path class="cls-3" d="M93,158.32a.93.93,0,0,1-.46-.12,1,1,0,0,1-.39-1.31c.08-.15,8.27-15.24,10.6-26.31,1.56-7.41-1.11-18.25-6.34-19.86-6.94-2.14-12.83,7.41-12.89,7.5a1,1,0,0,1-1.11.43,1,1,0,0,1-.68-1c0-.35,1.32-35.87-3.35-46.06-.54-1.16-1.47-2.51-3.18-2.42-2.36.14-5.88,3.38-8,10.14a1,1,0,0,1-1.22.63,1,1,0,0,1-.62-1.22c2.14-6.75,6-11.26,9.75-11.49,2.18-.17,4,1.13,5.06,3.55,4.08,8.88,3.84,34.76,3.62,43.82,2.55-3.07,7.43-7.54,13.22-5.76,7,2.14,9.22,14.72,7.67,22.11-2.39,11.35-10.46,26.21-10.8,26.84A1,1,0,0,1,93,158.32Z"/><path class="cls-3" d="M95.63,205.35a1,1,0,0,1-.52-.15,1,1,0,0,1-.29-1.34c.18-.28,18.08-28.41,11.61-38.86-1.32-2.14-2.89-3.22-4.79-3.3h-.23c-5.88,0-12.73,9.16-12.79,9.25a1,1,0,0,1-1.56-1.15c.3-.42,7.5-10,14.36-10h.3c2.55.11,4.69,1.52,6.36,4.22,7.11,11.48-10.87,39.73-11.63,40.93A1,1,0,0,1,95.63,205.35Z"/><path class="cls-3" d="M112,277a1,1,0,0,1-.45-.11,1,1,0,0,1-.4-1.31,58.26,58.26,0,0,0,5.43-22.77c.11-2.66-.24-6-2.47-7-3.25-1.41-9.38,2.21-13.51,6.34a1,1,0,0,1-1.27.09,1,1,0,0,1-.26-1.24c5.1-9.22,16.44-34.41,7.84-40.14-4-2.64-12.52,2.11-15.5,4.15a1,1,0,0,1-1.09-1.6c.48-.33,11.84-8.06,17.66-4.17,9.41,6.28-.19,28.63-4.93,38.27,4-3,8.65-4.86,11.84-3.47,2.59,1.13,3.81,4.11,3.63,8.85a59.14,59.14,0,0,1-5.66,23.61A1,1,0,0,1,112,277Z"/><path class="cls-3" d="M107.26,339.84a.92.92,0,0,1-.4-.08,1,1,0,0,1-.49-1.28c.16-.36,15.76-35.15,15.24-53.22,0-1.72-.38-3.87-1.68-4.35-2.79-1-9.31,4.61-12.75,8.42a1,1,0,1,1-1.43-1.31c1-1.1,9.91-10.73,14.85-8.93,1.86.69,2.85,2.74,3,6.12.53,18.51-14.76,52.62-15.41,54.06A1,1,0,0,1,107.26,339.84Z"/><path class="cls-3" d="M104.66,399.46a1.13,1.13,0,0,1-.44-.1,1,1,0,0,1-.43-1.31c9.93-19.67,23.3-52.33,17-56.24-5-3.1-14.7,7.37-18,11.66a1,1,0,1,1-1.54-1.18c1.33-1.72,13.15-16.71,20.57-12.13,4.44,2.74,3,13.24-4.36,32.12-5.29,13.53-11.82,26.52-11.88,26.65A1,1,0,0,1,104.66,399.46Z"/><path class="cls-3" d="M89.42,485a1,1,0,0,1-.77-1.56c2.44-3.21,5.2-6.43,7.87-9.53,6.72-7.83,13.06-15.22,11.43-19.25-2.17-5.32-10.93-3.15-11-3.12a1,1,0,0,1-1-1.53c.17-.21,16.28-21.16,19.37-37.9.42-2.27.16-3.72-.75-4.33-2.57-1.71-10.36,2.2-14.67,5.05a1,1,0,1,1-1.08-1.61c1.25-.83,12.33-8,16.82-5.06,1.62,1.08,2.16,3.2,1.59,6.3-2.66,14.37-14.16,31.13-18.29,36.79,3.28-.35,8.86-.16,10.83,4.69,2.08,5.11-4.33,12.58-11.75,21.23-2.65,3.09-5.39,6.28-7.8,9.44A1,1,0,0,1,89.42,485Z"/><path class="cls-3" d="M45.82,549.71a.78.78,0,0,1-.22,0,1,1,0,0,1-.73-1.17c.06-.24,5.64-24.75,3.82-46a1,1,0,0,1,.88-1.05.89.89,0,0,1,1,.88c1.85,21.57-3.8,46.37-3.86,46.62A1,1,0,0,1,45.82,549.71Z"/><path class="cls-3" d="M73.37,545.81a1,1,0,0,1-.92-.67c-.16-.5-3.94-12.5-3.94-40.73a1,1,0,1,1,1.93,0c0,27.87,3.81,40,3.85,40.13a1,1,0,0,1-.62,1.22A1,1,0,0,1,73.37,545.81Z"/><path class="cls-3" d="M43.65,460.26A.91.91,0,0,1,43,460a49.82,49.82,0,0,0-15.06-10.55,1,1,0,0,1,.69-1.81,50.09,50.09,0,0,1,14.73,10c1.26-2.51,4.68-7.66,11.39-7.82a1,1,0,0,1,1,.94,1,1,0,0,1-.94,1c-7.35.18-10.1,7.57-10.21,7.88a1,1,0,0,1-.7.62A.75.75,0,0,1,43.65,460.26Z"/><path class="cls-3" d="M34.33,302.06h-.11a.94.94,0,0,1-.72-.46c-2.28-3.8-9-10-9.07-10.09a1,1,0,0,1,1.31-1.43c.27.25,6,5.57,8.8,9.57a14,14,0,0,1,15.29-1.27,1,1,0,0,1-.87,1.74c-8.2-4.11-13.7,1.42-13.93,1.66A1,1,0,0,1,34.33,302.06Z"/><path class="cls-3" d="M72.58,214.53a1.1,1.1,0,0,1-.31,0,1,1,0,0,1-.65-1.05c.58-4.39.71-12-1.44-13.79a.62.62,0,0,0-.53-.1c-2.77.37-8.91,7.8-12.13,12.39a1,1,0,1,1-1.59-1.11c.9-1.29,8.95-12.59,13.45-13.2a2.59,2.59,0,0,1,2,.52c2.55,2.1,2.67,8.13,2.45,12.06a9.45,9.45,0,0,1,5.2-3.16,6.92,6.92,0,0,1,5.9,2.1,1,1,0,0,1-1.32,1.43A5,5,0,0,0,79.37,209c-3.38.54-5.92,5-5.94,5.08A1,1,0,0,1,72.58,214.53Z"/><path class="cls-3" d="M83.08,257a.82.82,0,0,1-.33-.07,1,1,0,0,1-.58-1.23c.12-.36,1.15-3.5-1.61-4.51-2.49-.91-5.88,3.14-7,4.78a.92.92,0,0,1-1,.42,1,1,0,0,1-.78-.71c0-.1-2.75-10.13-9.41-13.45-1.32-.67-1.88-.26-2.06-.14-2.15,1.5-2.18,9-1.69,13.43a1,1,0,0,1-1.93.21c-.14-1.27-1.28-12.58,2.51-15.23a3.76,3.76,0,0,1,4,0C69,243.27,72,250,73.13,253.3c1.69-2,4.91-5.15,8.1-4,3.7,1.36,3.43,5.16,2.76,7A1,1,0,0,1,83.08,257Z"/><path class="cls-3" d="M41.86,375.64a1,1,0,0,1-.86-.53c-3.48-6.95-13.26-18.72-13.36-18.84A1,1,0,0,1,29.13,355,170.18,170.18,0,0,1,41,371.09c.22-6.94,1.2-21.3,5.52-25a3.73,3.73,0,0,1,3.06-.93c7,1.1,10.27,17.09,11.23,22.81,2.2-1.72,5.58-3.18,8.29-.77a1,1,0,1,1-1.29,1.44c-2.81-2.49-6.92,1.88-7,1.92a.94.94,0,0,1-1,.26,1,1,0,0,1-.67-.78c-.85-6.09-4.29-22.08-9.89-23a1.81,1.81,0,0,0-1.51.48c-4,3.44-4.9,20.73-4.9,27.1a1,1,0,0,1-.74.94A.9.9,0,0,1,41.86,375.64Z"/><path class="cls-3" d="M54.41,421.92h-.08a1,1,0,0,1-.88-1.05c0-.39.88-9.57,5.43-13.17A6.55,6.55,0,0,1,64,406.33c6.63,1,9.82,7.92,10.81,10.59l10.23-4.3a1,1,0,1,1,.75,1.79l-11.19,4.7a1,1,0,0,1-.79,0,1,1,0,0,1-.51-.61c0-.09-2.76-9.24-9.58-10.24a4.58,4.58,0,0,0-3.68,1c-3.9,3.09-4.69,11.73-4.7,11.82A1,1,0,0,1,54.41,421.92Z"/><path class="cls-3" d="M50.58,161.23a.82.82,0,0,1-.26,0,1,1,0,0,1-.67-1.19c1.38-5,5.11-16.67,9.07-15.75,3.47.77,5.1,9.79,5.71,14.33,2.93-1.87,9.64-5.64,13.21-3.51a1,1,0,0,1-1,1.66c-2.48-1.49-8.94,1.86-12.42,4.32a1,1,0,0,1-1.52-.68c-.73-6.53-2.62-13.83-4.4-14.22-1.35-.32-4.63,6.54-6.78,14.37A1,1,0,0,1,50.58,161.23Z"/><path class="cls-1" d="M129.08,46.59s-6.27-14.54-11.51-12.18c-9.9,4.46-6.2,39-6.2,39S92.29,63.86,93.28,85.7c.52,11.2,5,25.46,9,34.18.42.92,3.16,6.93,2.39,6.26-6.41-5.59-19.35-14.87-21.12-.29C81.18,145.33,96.21,178,96.21,178s-8-5.81-12.67-3.15-6.79,11.51-1.47,22.43c10.62,21.85,11.21,23.62,11.21,23.62s-21-17.12-21-2.36S83,256.93,83,256.93s-13-12.44-13.58,1.18c-1,21.71,18.31,70.55,18.31,70.55s-18.44-23.73-19.49-9.74C65.59,353.57,89.45,401,89.45,401S61.4,386.23,73.21,406.9,98,439.37,98,439.37s-21.92.15-10.7,16.68c2.37,3.5,9.09,11.06,14.09,14.51.39.26-3.86-4.9-5.23-4.4-4,1.44-.31,9,0,9.37,9.32,11.9,20.07,21,25.76,24.06,7.68,4.14,28.8,6.75,48.42-14.31,6-6.42.16-11.64,1.55-13.07,35.44-36.5,2.58-30.48,2.58-30.48s18.3-23.62,21.84-42.8c2.7-14.62-18.89-.3-18.89-.3s35.08-72.91,24.5-79.41c-7.67-4.73-21.55,13.28-21.55,13.28s27.46-63.18,22.44-77.94c-3.52-10.36-17.42,6.2-17.42,6.2s12.84-30.55,13.43-45.9-10.18-13.51-17.27-6.42c0,0,17.5-27.21,4.95-35.58-6-4-18.53,4.65-18.53,4.65s24-40,18.75-53.58c-5-13-20.29,1.28-20.29,1.28s12-29.31,13.5-42.17c1-8.28,1-19-5.76-21.1C165.54,59.28,157,65.85,157,65.85S150.35,3.73,142.14,1.2C131.65-2,129.08,46.59,129.08,46.59Z"/><path class="cls-3" d="M133.16,502.63c-5,0-9.16-.81-11.7-2.19-5.45-2.92-18.82-15.05-27.27-25.71a1,1,0,0,1,1.52-1.2c9,11.38,22,22.71,26.67,25.21,3.29,1.77,10.72,2.79,20,1.07,10-1.86,18.81-6.39,24.86-12.76a1,1,0,0,1,1.41,1.33C158.74,498.76,144,502.63,133.16,502.63Z"/><path class="cls-3" d="M107,477.17a1,1,0,0,1-.76-.37,57.38,57.38,0,0,0-7.19-7c-4.24-3.72-9-7.93-13-13.87-3.28-4.92-4.09-9-2.4-12,2.29-4.15,8.57-5.17,12-5.42a153,153,0,0,1-23.32-31.09c-3.2-5.6-3.86-9.26-2-11.18,3.87-4,16.95,2.57,19.53,3.93a1,1,0,0,1,.41,1.31,1,1,0,0,1-1.31.41c-5.89-3.1-15.14-6.48-17.23-4.31-.66.68-1.23,2.73,2.28,8.88,11.59,20.28,24.48,32.12,24.61,32.24a1,1,0,0,1-.65,1.68h-.26c-1.52,0-10,.19-12.4,4.49-1.31,2.38-.53,5.74,2.32,10,3.81,5.72,8.52,9.84,12.67,13.48a59.17,59.17,0,0,1,7.43,7.27,1,1,0,0,1-.76,1.57Z"/><path class="cls-3" d="M84.09,387.27a1,1,0,0,1-.88-.57c-.84-1.82-20.55-45-16-68,.58-2.91,1.84-4.6,3.74-5,6.08-1.23,16.34,12.77,17.49,14.39a1,1,0,1,1-1.58,1.12c-4-5.68-11.89-14.44-15.5-13.61-1.07.23-1.83,1.4-2.25,3.49C64.68,341.42,84.77,385.45,85,385.89a1,1,0,0,1-.48,1.29A.93.93,0,0,1,84.09,387.27Z"/><path class="cls-3" d="M82.66,314.28a1,1,0,0,1-.89-.58c-.62-1.43-15.13-35.3-13.36-55.68.33-3.83,1.59-6.18,3.74-7,4.49-1.64,10.78,4.48,11.49,5.18a1,1,0,0,1-1.37,1.37c-1.67-1.66-6.62-5.76-9.46-4.73-1.37.5-2.21,2.29-2.47,5.31-1.73,19.89,13.06,54.39,13.21,54.74A1,1,0,0,1,83,314.2.84.84,0,0,1,82.66,314.28Z"/><path class="cls-3" d="M79.41,247.56a1,1,0,0,1-.85-.51c-.3-.55-7.2-13.67-7.2-28.5,0-3.33,1-5.5,3-6.46,4.38-2.07,12.13,2.67,16.47,5.76-1.44-3.11-4.25-9-9.65-20.13-5.14-10.57-5.45-19.11-.83-22.85,4-3.24,10.8-2,17.34,3.06a1,1,0,0,1-1.18,1.53c-5.81-4.52-11.68-5.73-14.94-3.09-3.87,3.14-3.37,10.8,1.35,20.5,10.53,21.65,11.24,23.66,11.26,23.73a1,1,0,0,1-1.53,1.06c-3.46-2.83-13.35-9.76-17.46-7.81-1.27.6-1.92,2.18-1.92,4.7,0,14.33,6.9,27.46,7,27.59a1,1,0,0,1-.41,1.31A1,1,0,0,1,79.41,247.56Z"/><path class="cls-3" d="M99.48,184.68a1,1,0,0,1-.87-.55c-.76-1.58-18.4-38.86-16-58.4.62-5.08,2.41-8.15,5.33-9.11,6.78-2.28,17,8.4,17.46,8.86a1,1,0,1,1-1.41,1.33c-2.7-2.85-10.72-9.91-15.44-8.36-2.15.71-3.5,3.24-4,7.52-2.31,19,15.66,56.95,15.85,57.33a1,1,0,0,1-.46,1.29A1,1,0,0,1,99.48,184.68Z"/><path class="cls-3" d="M104.66,127.11a1,1,0,0,1-.89-.6c-.43-1.06-10.52-26-11.45-40.75-.42-6.47,1.08-10.94,4.43-13.28,4.39-3.07,10.64-1.53,13.49-.56-.7-7.48-2.57-34.57,7-38.41a4.15,4.15,0,0,1,3.47.17c5.63,2.71,10,17.32,10.22,17.94a1,1,0,0,1-.65,1.21,1,1,0,0,1-1.2-.65c-1.19-4-5.17-14.81-9.21-16.76a2.28,2.28,0,0,0-1.9-.11c-7.7,3.1-6.65,28.45-5.6,38a1,1,0,0,1-.39.89,1,1,0,0,1-1,.1c-.09,0-8.29-3.56-13.12-.19-2.76,1.93-4,5.82-3.61,11.57.92,14.42,11.21,39.88,11.31,40.14a1,1,0,0,1-.9,1.33Z"/><path class="cls-3" d="M170.34,115A1.07,1.07,0,0,1,170,115a1,1,0,0,1-.56-1.25c.07-.18,6.93-18.41,9.55-30.86,1.87-8.89.83-19.28-4.79-21-8-2.45-15.82,4.45-15.9,4.52a1,1,0,0,1-1,.18,1,1,0,0,1-.62-.79C153.89,41.37,147,2.5,140.29,1.94a1.94,1.94,0,0,0-1.58.62C134.1,6.64,132.33,26.8,132,34.22a.93.93,0,0,1-1,.94,1,1,0,0,1-.93-1c.05-1.12,1.15-27.59,7.32-33a4,4,0,0,1,3-1.1c1.72.14,7,.58,13.24,33.42,2.46,12.86,4.14,25.79,4.7,30.36,2.8-2,9.36-6,16.36-3.81s8.16,13.59,6.13,23.26c-2.65,12.6-9.57,31-9.64,31.15A1,1,0,0,1,170.34,115Z"/><path class="cls-3" d="M173.29,167.56a1,1,0,0,1-.52-.15,1,1,0,0,1-.3-1.34c.2-.32,20.25-31.81,13-43.55-1.5-2.43-3.28-3.65-5.44-3.74-6.73-.32-14.58,10.27-14.65,10.38a1,1,0,0,1-1.36.2,1,1,0,0,1-.2-1.35c.34-.46,8.35-11.17,16-11.17h.33c2.81.11,5.17,1.68,7,4.65,7.91,12.78-12.14,44.28-13,45.61A1,1,0,0,1,173.29,167.56Z"/><path class="cls-3" d="M190.89,247.39a1.09,1.09,0,0,1-.39-.08A1,1,0,0,1,190,246c.07-.17,7.72-18,8.3-33,.12-3.11-.29-7.07-2.92-8.22-3.63-1.56-10.26,2.3-14.69,6.73a1,1,0,0,1-1.3.06,1,1,0,0,1-.2-1.27c.18-.29,18.39-28.93,6.77-36.68-4.44-3-14.1,2.35-17.44,4.64a1,1,0,0,1-1.34-.25,1,1,0,0,1,.25-1.34c.53-.37,13.15-8.95,19.6-4.66,10.1,6.72,1.59,25.44-3.33,34.42,4.24-3,9.08-4.89,12.45-3.42,2.92,1.27,4.29,4.66,4.09,10.06-.59,15.36-8.14,32.94-8.46,33.69A1,1,0,0,1,190.89,247.39Z"/><path class="cls-3" d="M186.28,317.83a1,1,0,0,1-.88-1.37c.17-.39,17.61-39.3,17-59.51-.05-2-.44-4.41-2-5-3.18-1.16-10.51,5.16-14.37,9.44a1,1,0,0,1-1.44-1.31c1.12-1.23,11-12,16.48-10,2,.75,3.11,3,3.22,6.74.59,20.65-16.48,58.74-17.21,60.35A1,1,0,0,1,186.28,317.83Z"/><path class="cls-3" d="M183.79,385.75a.9.9,0,0,1-.42-.1,1,1,0,0,1-.45-1.29c11.38-23.42,25.7-59.88,18.5-64.32-5.68-3.49-16.57,8.24-20.28,13a1,1,0,1,1-1.53-1.18c.58-.76,14.5-18.61,22.82-13.52,11,6.77-14.79,60.69-17.77,66.81A1,1,0,0,1,183.79,385.75Z"/><path class="cls-3" d="M166.35,480.05a1,1,0,0,1-.59-.2,1,1,0,0,1-.18-1.36c2.73-3.59,5.81-7.18,8.79-10.65,7.53-8.77,14.63-17,12.78-21.61-2.44-6-12.34-3.59-12.44-3.56a1,1,0,0,1-1-1.53c.19-.24,18.2-23.66,21.66-42.39.48-2.58.18-4.25-.89-5-2.92-1.93-11.68,2.44-16.52,5.65a1,1,0,0,1-1.33-.27,1,1,0,0,1,.26-1.35c1.39-.92,13.7-8.92,18.66-5.64,1.78,1.17,2.36,3.5,1.73,6.92-3,16.21-16.1,35.16-20.56,41.26,3.59-.41,10-.33,12.24,5.14,2.29,5.65-4.84,14-13.11,23.6-3,3.45-6,7-8.72,10.57A1,1,0,0,1,166.35,480.05Z"/><path class="cls-3" d="M118.1,549.24H118a1,1,0,0,1-.83-1.1c0-.25,3.48-25.52,1.45-49.34a1,1,0,0,1,.88-1.05.91.91,0,0,1,1,.88c2,24-1.42,49.53-1.46,49.78A1,1,0,0,1,118.1,549.24Z"/><path class="cls-3" d="M148.09,549.71a1,1,0,0,1-.91-.66c-.24-.68-5.7-17.23-3.72-48.28,0-.53.56-1,1-.9a1,1,0,0,1,.9,1c-1.95,30.63,3.56,47.38,3.62,47.54a1,1,0,0,1-.61,1.23A.84.84,0,0,1,148.09,549.71Z"/><path class="cls-3" d="M115.2,452.37a1,1,0,0,1-.67-.27c-9.47-9.2-18.55-12.52-18.64-12.55a1,1,0,1,1,.65-1.83c.37.13,8.94,3.26,18.34,12,1.37-2.71,5.23-8.67,12.7-8.85h0a1,1,0,0,1,0,1.94c-8.32.2-11.48,8.79-11.51,8.88a.94.94,0,0,1-.7.61A.78.78,0,0,1,115.2,452.37Z"/><path class="cls-3" d="M104.8,275.61h-.11a1,1,0,0,1-.73-.46c-2.55-4.26-10.08-11.23-10.16-11.3a1,1,0,0,1,1.32-1.43c.3.28,6.81,6.31,9.88,10.77a15.49,15.49,0,0,1,17.06-1.47,1,1,0,0,1,.43,1.29,1,1,0,0,1-1.3.44c-9.25-4.63-15.44,1.6-15.7,1.87A1,1,0,0,1,104.8,275.61Z"/><path class="cls-3" d="M147.53,177.82a1,1,0,0,1-.54-.17,1,1,0,0,1-.42-.93c.66-4.93.79-13.5-1.65-15.51a.88.88,0,0,0-.68-.14c-3.12.42-10,8.75-13.63,13.9a1,1,0,0,1-1.59-1.11c1-1.44,10-14,15-14.71a2.71,2.71,0,0,1,2.17.56c3.3,2.72,2.91,11.47,2.55,15.42,3.18-1.57,9.82-4.25,12.26-.59a1,1,0,0,1-1.62,1.07c-1.74-2.63-8.94.7-11.32,2.08A1,1,0,0,1,147.53,177.82Z"/><path class="cls-3" d="M159.26,225.2a1,1,0,0,1-.32-.06,1,1,0,0,1-.59-1.24c.15-.4,1.33-4-1.86-5.18-2.83-1-6.69,3.52-7.93,5.38a.92.92,0,0,1-1,.42,1,1,0,0,1-.77-.7c0-.12-3.1-11.37-10.57-15.11-1.53-.76-2.21-.29-2.43-.13-2.44,1.7-2.48,10.16-1.94,15.1a1,1,0,1,1-1.92.22c-.16-1.43-1.42-14,2.75-16.91.84-.59,2.29-1.07,4.4,0,6.41,3.2,9.75,10.94,11,14.5,1.83-2.21,5.53-5.88,9-4.58,4.05,1.49,3.74,5.67,3,7.66A1,1,0,0,1,159.26,225.2Z"/><path class="cls-3" d="M113.21,357.82a1,1,0,0,1-.87-.53c-3.89-7.78-14.82-20.93-14.93-21.07A1,1,0,0,1,98.9,335c.4.48,8.68,10.45,13.41,18.27.24-7.45,1.31-24.11,6.13-28.23a4,4,0,0,1,3.34-1c7.78,1.23,11.45,19.37,12.48,25.57,2.42-1.94,6.24-3.68,9.26-1a1,1,0,0,1,.08,1.37,1,1,0,0,1-1.36.08c-3.24-2.85-7.91,2.1-8,2.15a1,1,0,0,1-1,.27,1,1,0,0,1-.67-.79c-1-6.83-4.83-24.75-11.15-25.75a2.1,2.1,0,0,0-1.77.57c-4.53,3.87-5.52,23.23-5.52,30.36a1,1,0,0,1-.75.94A.82.82,0,0,1,113.21,357.82Z"/><path class="cls-3" d="M151.29,406.54a1,1,0,0,1-.61-.22,1,1,0,0,1-.32-1c0-.1,2.41-9.66-3.66-14.5a3.27,3.27,0,0,0-2.78-.68c-4.9.89-11.4,10.19-13.49,13.7a1,1,0,0,1-1.33.34,1,1,0,0,1-.34-1.33c.33-.55,8-13.39,14.81-14.62a5.18,5.18,0,0,1,4.34,1.07c5.29,4.23,5.14,11.14,4.69,14.52l8.89-4.44a1,1,0,1,1,.86,1.73l-10.62,5.31A1,1,0,0,1,151.29,406.54Z"/><path class="cls-3" d="M123,118.26a.73.73,0,0,1-.25,0A1,1,0,0,1,122,117c1.2-4.36,5.51-18.46,10-17.52,3.87.86,5.7,11.53,6.31,16.09,3.17-2,10.8-6.41,14.79-4a1,1,0,1,1-1,1.67c-3.18-1.92-11.37,3-14,4.83a1,1,0,0,1-1.53-.69c-.81-7.33-3-15.53-5-16-1.66-.26-5.25,7.17-7.71,16.14A1,1,0,0,1,123,118.26Z"/><path class="cls-3" d="M439.32,371.06c-.91.74-11.52,67.22-29,110.68l25.25,12.63S475.72,400,475,392.23,468.29,347.28,439.32,371.06Z"/><path class="cls-3" d="M379.89,373.66l.37-40.86s102.14,16.5,108.46,24.51c7.48,9.49,17.08,161.57,17.08,161.57l-31.94,3L454.18,379.23Z"/><path class="cls-4" d="M411.19,484.29l-8.27,19.23a4.82,4.82,0,0,0,2.53,6.35l50.29,21.63a4.47,4.47,0,0,0,6-2.63c.53-1.55.9-3,.64-3.6-.64-1.34-25.37-24.56-25.7-24.85s-2.94-7.63-2.94-7.63"/><path class="cls-3" d="M457.53,532.84a5.44,5.44,0,0,1-2.17-.45l-50.29-21.63a5.8,5.8,0,0,1-3-7.63l8.27-19.22a1,1,0,1,1,1.78.76l-8.27,19.23a3.86,3.86,0,0,0,2,5.08l50.29,21.63a3.64,3.64,0,0,0,2.86,0,3.45,3.45,0,0,0,1.87-2c.79-2.32.66-2.89.66-2.92-1-1.51-24.18-23.35-25.46-24.5-.21-.19-.51-.45-3.2-8a1,1,0,0,1,1.83-.65c1.16,3.27,2.52,6.93,2.8,7.39.1.06,25,23.39,25.79,25,.25.54.38,1.47-.59,4.33a5.3,5.3,0,0,1-2.91,3.19A5.63,5.63,0,0,1,457.53,532.84Z"/><path class="cls-3" d="M454.53,525.27a1.1,1.1,0,0,1-.4-.08c-17.95-8-45.18-20-46.58-20.35a.89.89,0,0,1-.85-1,1,1,0,0,1,1.06-.93h0c.26,0,1,0,47.14,20.5a1,1,0,0,1,.49,1.27A1,1,0,0,1,454.53,525.27Z"/><path class="cls-1" d="M349.06,374.77l1.3,5.76c2.08,8.94,11.51,15,20.69,15h82.37l0-1.55a20.49,20.49,0,0,0-20.71-20.15Z"/><path class="cls-4" d="M419.82,394.85v-37c0-7.53-7.24-7.73-11.52-7.7l-66.11.45-3.9-14.26,77.54-.22a21.81,21.81,0,0,1,22,21.49v37.7Z"/><path class="cls-1" d="M419.82,394.85v-37c0-7.53-7.24-7.73-11.52-7.7l-66.11.45-1.58-7.38,68.53-.5c13.37,0,17.27,4.46,17.27,15l.84,37.61Z"/><path class="cls-4" d="M477.25,522.86v20.93a4.84,4.84,0,0,0,4.84,4.84h54.74a4.49,4.49,0,0,0,4.5-4.8c-.13-1.63-.38-3.15-.84-3.56-1.12-1-33-12.53-33.43-12.67s-5.71-5.85-5.71-5.85"/><path class="cls-4" d="M329.44,209.86c-1-3.9-2.93-13.1-2.93-13.1s2.51-13.92-1.25-19.08-3.34-10.17-9.47-8.49-27.3,7.66-29,16l-4.71,6.64-1.58,17.09-2.41,29.25,30.73.65-1.2-10.22c6.87,2.85,14,3.75,15.38,1,3.21-6.13,3.41-16.79,3.41-16.79S330.41,213.76,329.44,209.86Z"/><path class="cls-4" d="M427.39,293.2s14.62-5.3,18.24-4.74,18.53,16.16,18.53,16.16h-34Z"/><path class="cls-4" d="M238.69,253.45c-1.07-11.51,9.35-17.33,20.9-16.78l70.16-.16c3.7.14,11.91,1.68,15.18,3.62,12.06,7.13,14.73,14.11,16.44,18.66,3.9,7-120.21,5-121,6.69A48,48,0,0,1,238.69,253.45Z"/><path class="cls-4" d="M308.58,260.37s51.07,71.31,58.68,73.73,14.86.37,15.6.37,41.79-21.36,41.79-21.36,11.7-4.08,10.21-9.28c-.9-3.16-2.73-9.45-5.29-13.49-1.71-2.69-7.5-3.4-10.57-2.53l-34,9.56s-26.51-45.54-34.49-52.6S308.58,260.37,308.58,260.37Z"/><path class="cls-3" d="M323.45,199.86v2a.73.73,0,0,0,.28.56,1,1,0,0,0,.57.29.91.91,0,0,0,.85-.85v-2a.77.77,0,0,0-.28-.57,1.09,1.09,0,0,0-.57-.28A.81.81,0,0,0,323.45,199.86Z"/><path class="cls-3" d="M280.19,214.52a101.51,101.51,0,0,1-1.42,17.36.88.88,0,0,0,1.71.42,106.45,106.45,0,0,0,1.42-17.78.86.86,0,1,0-1.71,0Z"/><circle class="cls-3" cx="252.73" cy="536.32" r="11.67"/><circle class="cls-3" cx="439.55" cy="536.28" r="11.67"/><rect class="cls-4" x="335.97" y="444.59" width="18.64" height="67.73" transform="translate(-1.17 0.85) rotate(-0.14)"/><rect class="cls-1" x="335.82" y="444.59" width="18.64" height="23.33" transform="translate(-1.11 0.84) rotate(-0.14)"/><path class="cls-1" d="M315.9,425.52V428a12.42,12.42,0,0,0,8.68,11.71l6.12,9.77a7.23,7.23,0,0,0,6.12,3.41h16.5a7,7,0,0,0,6.12-3.41l6.14-9.9a12.52,12.52,0,0,0,8.66-11.87v-2.29Z"/><path class="cls-1" d="M353.91,501.36l75.68,22.83a9.34,9.34,0,0,1,7.11,11.24v.14l-.28,1L353.63,512.5Z"/><path class="cls-1" d="M338.26,505.35a3.54,3.54,0,0,0-4.34-3.32L260.7,523.8A9.35,9.35,0,0,0,253.58,535v.14l.29,1,84.61-24.91Z"/><path class="cls-3" d="M437.08,538.06l-.94-.28-82.81-24.49H337l-83.62,24.09-.55-1.93a10.41,10.41,0,0,1,1.33-7.9,10.23,10.23,0,0,1,6.51-4.55l.17.77,0-.8L335,501.21l-.14-48a1,1,0,0,1,1-1h0a1,1,0,0,1,1,1l.15,49.43L267.59,523h2L261,524.91a8.33,8.33,0,0,0-5.2,3.68,8.48,8.48,0,0,0-1.08,6.38h0l82.15-23.63,16.92,0,82,24.25v-.14a8.48,8.48,0,0,0-1.08-6.38,8.33,8.33,0,0,0-5.3-3.7L353.64,502.8l-.14-49.56a1,1,0,0,1,1-1h0a1,1,0,0,1,1,1l.14,48.12,74.29,22.19a10.21,10.21,0,0,1,6.45,4.54,10.35,10.35,0,0,1,1.34,7.84Zm-.38-2.2h0Z"/><path class="cls-3" d="M353.33,453.81H336.82a8.24,8.24,0,0,1-6.95-3.88l-5.6-8.95a1,1,0,0,1,.3-1.34,1,1,0,0,1,1.34.31l5.61,9a6.29,6.29,0,0,0,5.3,3h16.51a6.07,6.07,0,0,0,5.28-2.95l5.56-8.95a1,1,0,0,1,1.33-.32,1,1,0,0,1,.32,1.34l-5.55,8.94A8,8,0,0,1,353.33,453.81Z"/><path class="cls-3" d="M328.43,441.29a13.43,13.43,0,0,1-13.49-13.35v-2a1,1,0,0,1,1.93,0v2a11.5,11.5,0,0,0,11.55,11.42l33.44-.15a11.49,11.49,0,0,0,11.41-11.55v-2a1,1,0,0,1,1.94,0v2a13.44,13.44,0,0,1-13.35,13.49Z"/><polyline class="cls-4" points="338.67 506.49 338.67 540.63 352.9 540.63 352.9 506.49"/><path class="cls-3" d="M353.87,541.6H337.7V506.49a1,1,0,0,1,1.94,0v33.17h12.29V506.49a1,1,0,0,1,1.94,0Z"/><path class="cls-4" d="M450.51,395.33a4.83,4.83,0,0,1,4.65,6.23l-3,9.74a19.17,19.17,0,0,1-18.49,14.23H292.94c-9.39,0-13.52-7-16.93-16.94h0L235.09,275.13a9.2,9.2,0,0,1,7.4-10.67H313.4a9.28,9.28,0,0,1,9.1,7.54l26.35,104.93a22.94,22.94,0,0,0,22.7,18.81Z"/><path class="cls-1" d="M306.2,410.8a18.83,18.83,0,0,1-18-13.3c-10.53-34.17-37.63-122.37-37.63-122.37a9.21,9.21,0,0,1,7.4-10.67H242.49a9.2,9.2,0,0,0-7.4,10.67s41.46,134.94,41.73,135.67h0c4.36,15.38,15,14.72,16.12,14.72H433.72a19.13,19.13,0,0,0,18.3-13.6l.34-1.13Z"/><path class="cls-4" d="M451.18,395.4a3.81,3.81,0,0,0-.67-.07l-64.4.33c.3,0,.6.08.91.08Z"/><circle class="cls-3" cx="346.21" cy="537.08" r="11.67"/><path class="cls-1" d="M244.19,264.46h20.19c-.14-4-.56-11.15-.59-13-.08-5.43.06-6.62,4.92-8.27,2.42-.14,9.37-1.75,11.7-2,9.7-1,8-3.39,10.68-4.51-2.32-12.72-.64-17.78-1-17.83a27.63,27.63,0,0,1-7.18-1.92c-.59-.26-1.16-.52-1.72-.79-2.06,2.76-2.15,18.69-3.36,20.36-.18.06-10.5,0-10.68.09s-24.42-5.76-29.06,15l.46,10.47a12.58,12.58,0,0,0,.52,3.51,6.85,6.85,0,0,1,3.44-1.16Z"/><path class="cls-3" d="M433.72,426.49H292.94c-9.82,0-14.24-7-17.85-17.58L234.16,275.42a10.36,10.36,0,0,1,1.64-7.72,9.87,9.87,0,0,1,6.52-4.19l1.87,0h68.37a10.27,10.27,0,0,1,10.06,8.33l27.17,104.87a22,22,0,0,0,21.62,18.08h.14l78.95-.41h0a5.8,5.8,0,0,1,5.56,7.48l-2.95,9.74A20.2,20.2,0,0,1,433.72,426.49ZM242.48,265.43a7.93,7.93,0,0,0-5.08,3.37A8.33,8.33,0,0,0,236,275l40.89,133.34c3.43,10,7.31,16.25,16,16.25H433.72A18.28,18.28,0,0,0,451.28,411l3-9.76a3.87,3.87,0,0,0-3.7-5h0l-79,.42h-.14a23.89,23.89,0,0,1-23.52-19.6L320.73,272.24a8.35,8.35,0,0,0-8.17-6.81Z"/><path class="cls-3" d="M437.83,396.26a1,1,0,0,1-1-1v-37.7a20.82,20.82,0,0,0-21-20.53l-77.53.22h0a1,1,0,1,1,0-1.93l77.53-.22a22.75,22.75,0,0,1,23,22.46v37.7A1,1,0,0,1,437.83,396.26Z"/><path class="cls-3" d="M419.82,395.82a1,1,0,0,1-1-1v-37a6,6,0,0,0-1.61-4.52c-2.27-2.26-6.58-2.22-8.93-2.21l-66.11.45h0a1,1,0,0,1,0-1.94l66.12-.45c3.95,0,7.81.28,10.31,2.77a8,8,0,0,1,2.18,5.9v37A1,1,0,0,1,419.82,395.82Z"/><path class="cls-5" d="M282.47,199.77a9.15,9.15,0,0,0-.29,2.23,3.94,3.94,0,0,0,.92,2.46,11.34,11.34,0,0,1-.63-3.6A7.93,7.93,0,0,1,282.47,199.77Z"/><path class="cls-5" d="M291.62,199.33a2.22,2.22,0,0,1,0-1.17,12.8,12.8,0,0,0-3.05-1.81C289.61,197.29,290.64,198.29,291.62,199.33Z"/><path class="cls-1" d="M291.62,199.33a2.18,2.18,0,0,0,.38.82s.1.09.14.14l-.14.14c.48.57.91,1.19,1.35,1.79.08-.22.12-.43.22-.65A27.43,27.43,0,0,0,291.62,199.33Z"/><path class="cls-1" d="M284,195.74c.86-.71,3.56.28,4.41.57l.09,0-.51-.47a4.93,4.93,0,0,0-2.28-1.14,3,3,0,0,0-2.85,2.14,9.11,9.11,0,0,0-.42,2.89,9.7,9.7,0,0,1,.28-1.05A5.65,5.65,0,0,1,284,195.74Z"/><path class="cls-1" d="M288.73,197.44c-.86-.71-1.85-1.85-3-2s-2,1-2.28,1.85a11,11,0,0,0-.14,3.7c.14,2.28.43,4.55,2.42,6,.78.52,4.09,2.38,5.24,3.08a53.89,53.89,0,0,0,1.59-5.5c.2-.69.44-1.38.69-2.08-.64-.84-1.26-1.7-2-2.47Z"/><path class="cls-3" d="M331.41,180.65c-1.29-2.09,1.66-5.54,2.52-6.4,4.31-4.32,2.36-14.63-6.41-18-6.72-2.56-18.3,3.74-22.86,4.88a33.49,33.49,0,0,1-7.54,1.42,66.2,66.2,0,0,1-7.54-.42A31.7,31.7,0,0,0,277,163a9.48,9.48,0,0,0-7.62,8.16c-.25,1.57-1.71,2.71-2.56,4a7,7,0,0,0-1.71,5.26c.57,3.56,2.79,14.23,3.07,16.65s3.47,7.11,5.18,9a29.09,29.09,0,0,1,2.42,3.27,15,15,0,0,0,2.6,4.93,9,9,0,0,0,2.79,2c.56.27,1.13.53,1.72.79,2.71,1.14,7.69,3.22,9.4,2a1.69,1.69,0,0,0,.59-.88,3.61,3.61,0,0,0,0-2.11c-.36-1.31-.51-1.91-.81-3.23a8.32,8.32,0,0,0-1.06-2.65c-1.15-.7-4.46-2.56-5.24-3.08-2-1.43-2.28-3.7-2.42-6a11,11,0,0,1,.14-3.7c.29-.85,1.14-2,2.28-1.85s2.13,1.28,3,2l2.56,2.57c.71.77,1.33,1.63,2,2.47.38.5.81,1,1.17,1.48a21.34,21.34,0,0,1,1.27,2c.07.13.48.58.49.6a2.13,2.13,0,0,0,3.35-2.16c-.3-1.18-.52-4.06-.91-4.78a13.35,13.35,0,0,0-.65-1.77c-.43-.85-1.43-2.42-1.14-3.41s2.56-1,3.41-1.14a19.34,19.34,0,0,0,2.71-.71,6.37,6.37,0,0,0,3.13-3.28,6.7,6.7,0,0,0,.42-2.41c0-1.29-.57-2.71.43-3.7,1.28-1.57,4.13-1.85,6-2.57a15.11,15.11,0,0,0,5.39-3.11,15.67,15.67,0,0,0,3.32-3.18,25.26,25.26,0,0,1,1.89,2.71c.21.43.41.87.59,1.31,0,.23,1.8,4.36,2.86,6.68.1,0,1.46.15,1.88.15C330.84,184.64,332.5,182.42,331.41,180.65Z"/><path class="cls-3" d="M293.85,206.69a58.69,58.69,0,0,0-5.83-6,.91.91,0,0,0-1.28,1.28,58.69,58.69,0,0,1,5.83,6,.9.9,0,0,0,1.28.15,1.32,1.32,0,0,0,0-1.43Z"/><path class="cls-3" d="M318.72,231.79c-6.66,0-16.63-3.09-22.24-8.12a7.72,7.72,0,0,1-1.76-8.94,1,1,0,0,1,1.75.83c-.07.16-1.77,3.92,1.3,6.67,6.36,5.69,17.91,8.2,23.08,7.49,1.76-.26,2.27-.79,2.4-1,.78-1.27,1.15-6.56,1.33-9.1.2-2.92.26-3.89.27-4.19v-.15a1,1,0,0,1,1-.91c.56,0,.8.06.83,1.09h0a.79.79,0,0,1,0,.22c0,.78-.08,2-.22,4.07-.31,4.38-.66,8.44-1.61,10-.61,1-1.88,1.64-3.77,1.91A16.33,16.33,0,0,1,318.72,231.79Z"/><path class="cls-3" d="M327.58,197a1,1,0,0,1-.94-.72,16.38,16.38,0,0,1,.19-7.4c.8-3.23-3.6-12.93-4.6-14.13a1,1,0,0,1,.71-1.77c.45.09.75.43,1.11,1,1.25,2,5.65,11.39,4.65,15.37a14.49,14.49,0,0,0-.18,6.44,1,1,0,0,1-.7,1.18Z"/><path class="cls-3" d="M326.89,213.85a2.77,2.77,0,0,1-.76-.08,1,1,0,0,1,.63-1.84,8.76,8.76,0,0,0,3.24-.66c-.21-1.14-1.65-6-3-10.32a1,1,0,0,1,1.85-.58c.51,1.61,3.06,9.73,3.13,11a1.67,1.67,0,0,1-.73,1.42A8.67,8.67,0,0,1,326.89,213.85Zm3.13-2.41h0Z"/><path class="cls-3" d="M293.57,208.94a1,1,0,0,1-.83-.46c-1.24-2-5.64-6.13-6.09-6.49a1,1,0,0,1-.18-1.33,1,1,0,0,1,1.31-.24c.3.2,5.13,4.6,6.62,7.05a1,1,0,0,1-.83,1.47Z"/><path class="cls-3" d="M279.15,233.08a1,1,0,0,1-1-1s0-.33.11-.81c1.29-7.65,1.72-13.58,1.28-17.61a1,1,0,0,1,.87-1.07,1,1,0,0,1,1.06.86c.45,4.21,0,10.32-1.29,18.14-.06.31-.09.51-.1.58A.92.92,0,0,1,279.15,233.08Z"/><path class="cls-3" d="M308.39,237.38a1,1,0,0,1-.85-.5c-1-1.76-1-6.7-.94-7.67a1,1,0,0,1,1-1h0a1,1,0,0,1,1,1c0,2.05.14,5.7.7,6.72a1,1,0,0,1-.38,1.32A1,1,0,0,1,308.39,237.38Z"/><path class="cls-3" d="M325,192.44a.94.94,0,0,1-.68-.28,1.69,1.69,0,0,0-2.47,0,1,1,0,0,1-1.32-1.41,3.63,3.63,0,0,1,5.15,0,1,1,0,0,1,0,1.37A1,1,0,0,1,325,192.44Z"/><path class="cls-3" d="M321,219.68a4.42,4.42,0,0,1-3.28-1.39,1,1,0,0,1,.1-1.37,1,1,0,0,1,1.36.1,2.77,2.77,0,0,0,3.49.27,1,1,0,0,1,1.31.41,1,1,0,0,1-.41,1.3A5.52,5.52,0,0,1,321,219.68Z"/><path class="cls-3" d="M435.19,306.14a1,1,0,0,1-1-.93c-.23-5.91-3.08-11-5.44-14.3a6.92,6.92,0,0,0-7.46-2.53l-36,9.93a1,1,0,1,1-.51-1.87l36-9.93a8.89,8.89,0,0,1,9.56,3.27c2.51,3.47,5.55,9,5.8,15.35a1,1,0,0,1-.94,1Z"/><path class="cls-3" d="M385.89,301.64s-21.87-36-29.39-48.24c-7.07-11.53-15.38-13.47-20.88-14.76l-.53-.12c-4.26-1-30.81-1.32-78.91-.92A17.07,17.07,0,0,0,239.28,256c.55,7.19.68,8.38.71,8.55a.92.92,0,0,1-.62,1.18,1,1,0,0,1-1.24-.65c-.07-.19-.13-.38-.78-8.94a19,19,0,0,1,18.81-20.45c48.93-.4,74.9-.09,79.38,1l.52.12c5.46,1.28,14.6,3.42,22.09,15.64s29.4,48.24,29.4,48.24Z"/><path class="cls-3" d="M376.09,336.22a21.84,21.84,0,0,1-16.88-8l-22.16-29.59a1,1,0,0,1,1.55-1.16L360.74,327a19.86,19.86,0,0,0,22.34,6c16.89-6.37,39.21-18,43.75-21.67a1,1,0,1,1,1.21,1.51c-5.13,4.15-28.41,16-44.28,22A21.57,21.57,0,0,1,376.09,336.22Z"/><path class="cls-3" d="M464.61,305.57a1,1,0,0,1-.85-.5c-1.24-2.25-11.47-11.69-16.22-14.66a6.27,6.27,0,0,0-4.5-.84l-12.24,2.29a1,1,0,0,1-.36-1.91l12.25-2.28a8.2,8.2,0,0,1,5.87,1.1c4.81,3,15.39,12.63,16.9,15.37a1,1,0,0,1-.38,1.31A1,1,0,0,1,464.61,305.57Z"/><path class="cls-3" d="M458.34,305.74a1,1,0,0,1-.65-.26l-9.41-8.58a1,1,0,1,1,1.31-1.43l9.41,8.58a1,1,0,0,1-.66,1.69Z"/><path class="cls-3" d="M536.83,549.6H482.09a5.81,5.81,0,0,1-5.81-5.81V522.86a1,1,0,0,1,1.94,0v20.93a3.87,3.87,0,0,0,3.87,3.87h54.74a3.55,3.55,0,0,0,2.62-1.14,3.42,3.42,0,0,0,.91-2.61c-.19-2.45-.53-2.92-.54-2.94-1.6-1-31.59-12-33.07-12.46-.27-.08-.65-.2-6.11-6.1a1,1,0,0,1,.05-1.37,1,1,0,0,1,1.37.05c2.35,2.54,5.05,5.36,5.49,5.67.13,0,32.25,11.63,33.57,12.78.45.39.93,1.19,1.17,4.22a5.28,5.28,0,0,1-1.42,4.07A5.48,5.48,0,0,1,536.83,549.6Z"/><path class="cls-3" d="M419.17,375.37H349.06a1,1,0,0,1,0-1.94h70.11a1,1,0,0,1,0,1.94Z"/><polygon class="cls-4" points="605.37 351.37 488.07 351.37 491.36 326.27 599.3 326.27 605.37 351.37"/><polygon class="cls-1" points="601.58 337.43 489.84 337.43 491.36 326.27 599.3 326.27 601.58 337.43"/><path class="cls-4" d="M598.77,230.47l-.11-19.81a8.82,8.82,0,0,0-5.15-7.56l-6-3.35V167.89h-7.43V290.83h7.43v-27.9l6-3.61a10.13,10.13,0,0,0,4.87-5.33V306.4h7.8V230.47Z"/><path class="cls-1" d="M588,200.43l5.52,2.67a8.41,8.41,0,0,1,4.73,7.56v41.11a8.39,8.39,0,0,1-4.73,7.55l-4.8,2.33"/><rect class="cls-1" x="598.38" y="230.47" width="7.8" height="75.93"/><rect class="cls-4" x="576.75" y="306.61" width="50.51" height="7.43"/><path class="cls-3" d="M588.49,291.8h-9.37V166.92h9.37Zm-7.43-1.94h5.49v-121h-5.49Z"/><path class="cls-3" d="M607.15,307.37h-9.74V229.5h9.74Zm-7.8-1.94h5.86v-74h-5.86Z"/><path class="cls-3" d="M627.54,314.36a1,1,0,0,1-1-1v-6H578v6a1,1,0,0,1-1.94,0v-7.93h52.45v7.93A1,1,0,0,1,627.54,314.36Z"/><path class="cls-3" d="M588.71,262.62a1,1,0,0,1-.42-1.84l4.8-2.33a7.48,7.48,0,0,0,4.19-6.68V210.66a7.47,7.47,0,0,0-4.19-6.68l-5.53-2.68a1,1,0,0,1-.44-1.3,1,1,0,0,1,1.29-.44l5.52,2.67a9.43,9.43,0,0,1,5.28,8.43v41.11a9.4,9.4,0,0,1-5.28,8.42l-4.79,2.33A.94.94,0,0,1,588.71,262.62Z"/><path class="cls-4" d="M427.49,313.48H655.86a0,0,0,0,1,0,0v12.63a0,0,0,0,1,0,0H427.49a4.15,4.15,0,0,1-4.15-4.15v-4.33a4.15,4.15,0,0,1,4.15-4.15Z"/><path class="cls-3" d="M656.83,327.08H427.5a5.12,5.12,0,0,1-5.12-5.11v-4.34a5.12,5.12,0,0,1,5.12-5.11H656.83ZM427.5,314.45a3.18,3.18,0,0,0-3.18,3.18V322a3.18,3.18,0,0,0,3.18,3.18H654.89v-10.7Z"/><polygon class="cls-4" points="651.18 548.75 640.78 548.75 600.29 326.11 637.43 326.11 651.18 548.75"/><polygon class="cls-1" points="645.47 548.75 640.78 548.75 600.29 326.11 612.4 326.11 645.47 548.75"/><path class="cls-3" d="M652.21,549.71H640l-.14-.79L599.12,325.15h39.22l.06.9Zm-10.62-1.93h8.56l-13.63-220.7H601.45Z"/><polygon class="cls-4" points="441.31 548.22 451.71 548.22 491.83 326.11 454.69 326.11 441.31 548.22"/><polygon class="cls-1" points="446 548.22 451.71 548.22 491.83 326.11 481.29 326.11 446 548.22"/><path class="cls-3" d="M452.52,549.19H440.28l.07-1,13.42-223H493l-.21,1.13Zm-10.18-1.94h8.56l39.77-220.17H455.6Z"/><path class="cls-3" d="M603.86,352.71H488.35a1,1,0,1,1,0-1.94H603.86a1,1,0,1,1,0,1.94Z"/><path class="cls-4" d="M544.18,237.22l-44.62,68.65H427.8v2.74a4.5,4.5,0,0,0,4.51,4.5h69.23a5.29,5.29,0,0,0,5.29-5.29v-1.95l37.23-57s4.36-6.67,6-9.39C551.73,236.63,547.34,233.22,544.18,237.22Z"/><path class="cls-3" d="M501.54,314.08H432.31a5.47,5.47,0,0,1-5.47-5.47v-2.74a1,1,0,0,1,1-1h79a1,1,0,0,1,1,1v1.95A6.27,6.27,0,0,1,501.54,314.08Zm-72.77-7.24v1.77a3.54,3.54,0,0,0,3.54,3.53h69.23a4.33,4.33,0,0,0,4.32-4.32v-1Z"/><path class="cls-3" d="M506.83,306.64h-7a1,1,0,0,1-.85-.51,1,1,0,0,1,0-1l44.39-68.45c2.1-2.67,4.69-2.69,6.34-1.56a3.59,3.59,0,0,1,1.15,4.88c-1.6,2.72-5.82,9.16-6,9.43L507.64,306.2A1,1,0,0,1,506.83,306.64Zm-5.26-1.94h4.74l36.94-56.32c0-.07,4.36-6.68,6-9.36a1.69,1.69,0,0,0-.58-2.29c-.84-.57-2.31-.64-3.67,1.09Z"/><rect class="cls-4" x="434.97" y="152.08" width="39.69" height="60.35"/><polygon class="cls-6" points="435.6 192.21 449.81 174.94 459.84 181.63 465.41 174.94 473.77 183.86 473.77 212.74 435.74 212.74 435.6 192.21"/><path class="cls-1" d="M427.36,144.27v76h54.91v-76Zm47.3,68.16H435V152.08h39.69Z"/><path class="cls-3" d="M482.27,221.21H427.36a1,1,0,0,1-1-1v-76a1,1,0,0,1,1-1h54.91a1,1,0,0,1,1,1v76A1,1,0,0,1,482.27,221.21Zm-53.94-1.94h53v-74h-53Z"/><path class="cls-3" d="M435,213.4a1,1,0,0,1-1-1V152.08a1,1,0,0,1,1-1h39.69a1,1,0,0,1,0,1.94H435.94v59.38A1,1,0,0,1,435,213.4Z"/><path class="cls-3" d="M474.66,213.4h-34.8a1,1,0,0,1,0-1.94h33.83V160.75a1,1,0,1,1,1.94,0v51.68A1,1,0,0,1,474.66,213.4Z"/><path class="cls-3" d="M435.35,153.11a1,1,0,0,1-.67-.27l-7.45-7.2a1,1,0,0,1,1.35-1.39l7.45,7.2a1,1,0,0,1-.68,1.66Z"/><path class="cls-3" d="M427.36,221.21a1,1,0,0,1-.68-.27,1,1,0,0,1,0-1.37l7.6-7.82a1,1,0,0,1,1.39,1.36l-7.61,7.81A1,1,0,0,1,427.36,221.21Z"/><path class="cls-3" d="M482.09,220.78a1,1,0,0,1-.69-.28L474,213.12a1,1,0,0,1,1.37-1.38l7.43,7.39a1,1,0,0,1-.68,1.65Z"/><path class="cls-3" d="M474.66,153.05a1,1,0,0,1-.68-.27,1,1,0,0,1,0-1.37l7.6-7.82A1,1,0,0,1,483,145l-7.61,7.81A1,1,0,0,1,474.66,153.05Z"/></g></g></svg>