<svg width="275" height="300" viewBox="0 0 275 300" fill="none" xmlns="http://www.w3.org/2000/svg">
<mask id="mask0" mask-type="alpha" maskUnits="userSpaceOnUse" x="0" y="0" width="274" height="300">
<rect width="274" height="300" fill="#C4C4C4"/>
</mask>
<g mask="url(#mask0)">
<path d="M279.797 83.4977C280.538 166.22 281.863 308.993 281.863 308.993C263.193 309.189 244.756 308.914 226.203 306.914C193.812 272.515 167.502 232.311 148.871 188.812C139.399 166.73 131.877 143.509 130.201 119.505C128.525 95.5001 133.085 70.5932 146.221 50.5109C152.652 40.7051 160.954 32.2328 170.153 25.0157C186.056 12.5427 205.233 3.59982 225.384 2.69768C245.536 1.79555 266.506 9.71865 278.862 25.7218C278.862 25.1726 279.252 25.4472 279.252 25.9963C279.252 33.488 279.408 40.9796 279.447 48.4321C279.525 56.9435 279.603 65.455 279.681 73.9664C279.72 76.3198 279.525 78.3202 279.096 80.0853" fill="#DEEBFC"/>
<path fill-rule="evenodd" clip-rule="evenodd" d="M279.994 23.1254C266.961 7.08467 245.633 -0.71145 225.273 0.200044C204.461 1.13174 184.797 10.3525 168.61 23.0485C159.243 30.3977 150.739 39.0633 144.13 49.1397L144.128 49.1423C130.623 69.7893 126.003 95.2745 127.707 119.679C129.41 144.077 137.048 167.589 146.573 189.796C165.319 233.563 191.791 274.014 224.383 308.627C224.792 309.062 225.342 309.335 225.935 309.399C244.634 311.415 263.185 311.689 281.89 311.492C283.269 311.478 284.376 310.349 284.363 308.969L281.863 308.992C284.363 308.969 284.363 308.969 284.363 308.968L284.145 285.368C284.009 270.691 283.82 250.259 283.608 227.243C283.184 181.209 282.668 124.836 282.297 83.4752C282.29 82.624 281.858 81.8761 281.204 81.4304C281.348 81.2042 281.458 80.9506 281.525 80.6753C282.015 78.6595 282.221 76.4426 282.18 73.9343C282.18 73.9312 282.18 73.928 282.18 73.9249L281.947 48.4189C281.947 48.4172 281.947 48.4156 281.947 48.4139C281.93 45.1861 281.891 41.9858 281.853 38.791C281.802 34.5334 281.752 30.2857 281.752 25.9962C281.752 25.5707 281.677 25.1425 281.522 24.7418C281.393 24.4067 281.106 23.8322 280.497 23.4032C280.367 23.3117 280.198 23.211 279.994 23.1254ZM277.69 82.1529C277.437 82.5473 277.293 83.017 277.298 83.52C277.668 124.881 278.184 181.255 278.608 227.289C278.82 250.306 279.009 270.737 279.145 285.415L279.34 306.516C261.873 306.658 244.666 306.336 227.39 304.526C195.491 270.49 169.564 230.774 151.169 187.828L151.169 187.827C141.75 165.869 134.343 142.941 132.695 119.33C131.046 95.7253 135.547 71.3969 148.313 51.8792C154.566 42.3451 162.666 34.0669 171.696 26.9825C187.315 14.7326 206.005 6.06761 225.496 5.19504C244.92 4.32549 264.965 11.9494 276.753 27.0814C276.76 31.0131 276.808 34.9755 276.854 38.9168C276.892 42.1159 276.93 45.3012 276.947 48.445L276.947 48.4548L277.181 73.9892L277.181 74.0077C277.217 76.2024 277.034 77.9832 276.667 79.495C276.414 80.5363 276.853 81.5837 277.69 82.1529Z" fill="#046CFC"/>
<path d="M284.67 74.2808C284.67 74.2808 254.813 112.798 228.191 121.153C207.026 130.449 188.083 139.784 172.881 140.96C162.162 130.017 153.86 124.526 145.285 126.252C141.153 129.468 133.864 136.724 141.27 160.768C152.223 196.579 193.5 267.809 200.867 263.926C220.668 253.021 223.591 257.454 207.883 204.306C219.849 189.127 252.045 159.121 284.592 145.903C285.722 94.8338 284.67 74.2808 284.67 74.2808Z" fill="#81B5FD"/>
<path d="M288.84 142.646C288.84 142.646 240.352 167.749 211.937 197.167C208.975 201.128 206.441 200.187 209.17 212.307C211.859 224.192 228.347 256.904 195.8 267.141C204.064 281.301 226.203 306.875 226.203 306.875L284.553 312.091L288.84 142.646Z" fill="white"/>
<path fill-rule="evenodd" clip-rule="evenodd" d="M224.95 122.114C224.355 120.868 222.862 120.341 221.616 120.937C205.583 128.604 190.519 135.735 174.091 138.255C169.665 131.573 163.616 127.11 156.154 124.411C152.756 123.176 148.37 122.238 144.32 123.946C140.085 125.704 137.563 129.763 136.082 133.283C133.972 138.294 133.135 143.793 133.555 149.195C133.661 150.571 134.864 151.601 136.241 151.494C137.617 151.387 138.646 150.184 138.54 148.808C138.179 144.168 138.902 139.47 140.69 135.224L140.69 135.223C142.014 132.078 143.856 129.55 146.242 128.561L146.258 128.555C148.519 127.6 151.378 127.995 154.448 129.111L154.452 129.113C161.441 131.64 166.848 135.838 170.699 142.248C171.213 143.103 172.186 143.571 173.175 143.438C191.13 141.024 207.345 133.304 223.773 125.448C225.019 124.852 225.546 123.36 224.95 122.114Z" fill="#046CFC"/>
<path d="M265.298 130.409C265.064 132.449 264.479 134.802 262.569 135.508C261.595 135.861 260.503 135.705 259.49 135.508C247.056 133.077 235.051 128.527 224.098 122.173C225.073 112.171 227.762 102.365 231.933 93.2649C232.284 92.5197 232.673 91.7744 233.336 91.3822C233.921 91.0684 234.661 91.0684 235.363 91.1077C240.898 91.343 263.427 93.4218 264.596 96.9912C266.116 101.737 265.921 108.248 266.077 113.23C266.272 118.956 266.038 124.722 265.298 130.409Z" fill="#DEEBFC"/>
<path fill-rule="evenodd" clip-rule="evenodd" d="M235.436 89.6095C234.758 89.5717 233.621 89.5267 232.627 90.0606C232.608 90.0705 232.59 90.0808 232.572 90.0915C231.458 90.7505 230.903 91.9295 230.577 92.6241L230.576 92.6262L230.569 92.64C226.331 101.888 223.596 111.855 222.605 122.027C222.548 122.612 222.838 123.175 223.345 123.47C234.44 129.906 246.602 134.516 259.202 136.981L259.205 136.981C260.2 137.174 261.673 137.429 263.08 136.919L263.089 136.915L263.089 136.915C264.552 136.375 265.419 135.223 265.933 134.068C266.437 132.933 266.663 131.661 266.787 130.592C267.537 124.821 267.774 118.977 267.576 113.181C267.55 112.336 267.534 111.422 267.517 110.467C267.485 108.699 267.451 106.793 267.346 104.938C267.183 102.056 266.843 99.0899 266.025 96.5337L266.022 96.5242L266.022 96.5242C265.682 95.4873 264.728 94.8268 263.944 94.4034C263.074 93.9336 261.964 93.524 260.74 93.1611C258.28 92.4318 255.102 91.8178 251.845 91.3167C245.327 90.3141 238.265 89.7304 235.436 89.6095ZM234.072 92.6904C234.25 92.6082 234.59 92.5669 235.279 92.6054L235.299 92.6064C238.012 92.7217 244.973 93.295 251.388 94.2818C254.601 94.7759 257.621 95.3656 259.887 96.0374C261.026 96.3749 261.911 96.7152 262.519 97.0432C263.037 97.3229 263.171 97.4971 263.186 97.5069C263.875 99.6856 264.193 102.326 264.351 105.107C264.453 106.915 264.484 108.699 264.515 110.422C264.532 111.395 264.549 112.348 264.578 113.277L264.578 113.281C264.77 118.933 264.539 124.617 263.81 130.216L263.807 130.239C263.697 131.206 263.513 132.126 263.191 132.85C262.877 133.556 262.499 133.934 262.054 134.1C261.513 134.294 260.804 134.235 259.775 134.036C247.825 131.698 236.273 127.377 225.69 121.357C226.723 111.861 229.326 102.555 233.293 93.8972C233.65 93.1404 233.87 92.8253 234.072 92.6904Z" fill="#046CFC"/>
<path d="M231.972 93.2649C232.322 92.5197 232.712 91.7744 233.375 91.3822C233.959 91.0684 234.7 91.0684 235.402 91.1077C240.936 91.343 262.062 93.4218 264.167 96.1282C263.972 96.5597 263.777 96.9519 263.544 97.3834C260.153 104.13 256.06 110.484 251.383 116.407C250.993 116.877 250.603 117.387 250.057 117.662C249.59 117.936 249.005 118.015 248.459 118.093C240.391 119.348 232.283 120.525 224.176 121.545C225.267 111.778 227.879 102.208 231.972 93.2649Z" fill="#DEEBFC"/>
<path fill-rule="evenodd" clip-rule="evenodd" d="M235.475 89.6095C234.797 89.5717 233.66 89.5267 232.665 90.0606C232.647 90.0705 232.629 90.0808 232.611 90.0915C231.497 90.7505 230.942 91.9296 230.615 92.6241L230.614 92.6262L230.608 92.6408C226.447 101.732 223.794 111.457 222.685 121.378C222.634 121.835 222.795 122.29 223.123 122.613C223.45 122.936 223.907 123.091 224.363 123.033C232.486 122.012 240.606 120.833 248.681 119.577C248.709 119.573 248.739 119.569 248.771 119.564C249.246 119.498 250.063 119.383 250.775 118.98C251.557 118.572 252.116 117.883 252.44 117.484C252.475 117.44 252.508 117.4 252.538 117.363C252.545 117.355 252.552 117.346 252.56 117.336C257.292 111.344 261.437 104.912 264.873 98.0776C265.119 97.6234 265.327 97.2045 265.534 96.7458C265.763 96.2388 265.693 95.6466 265.351 95.2074C264.819 94.5236 263.915 94.0742 263.112 93.7527C262.229 93.3993 261.134 93.0757 259.92 92.7783C257.487 92.1819 254.419 91.6528 251.282 91.2063C245.014 90.3143 238.307 89.7306 235.475 89.6095ZM234.111 92.6904C234.289 92.6082 234.629 92.5669 235.318 92.6054L235.338 92.6064C238.047 92.7216 244.662 93.2946 250.859 94.1764C253.958 94.6174 256.913 95.1302 259.206 95.6921C260.355 95.9738 261.299 96.2585 261.996 96.5377C262.085 96.5731 262.166 96.6072 262.24 96.6398C262.235 96.6494 262.23 96.659 262.225 96.6687C262.217 96.6823 262.21 96.696 262.203 96.7098C258.863 103.356 254.829 109.62 250.216 115.463C249.751 116.024 249.581 116.222 249.383 116.322C249.354 116.336 249.326 116.352 249.298 116.368C249.135 116.464 248.874 116.518 248.246 116.609L248.229 116.611C240.804 117.766 233.351 118.854 225.899 119.814C227.086 110.864 229.575 102.109 233.332 93.8967C233.689 93.1402 233.909 92.8253 234.111 92.6904Z" fill="#046CFC"/>
<path d="M248.498 118.093C249.044 118.014 249.59 117.936 250.096 117.661C250.642 117.347 251.032 116.877 251.422 116.406C255.787 110.915 259.646 104.953 262.881 98.7163C265.103 100.874 264.752 111.072 264.752 113.504C264.791 119.23 264.167 124.957 262.842 130.566C262.686 131.232 262.491 131.978 261.985 132.448C261.127 133.272 259.763 133.076 258.632 132.801C248.303 130.526 238.325 126.839 228.97 121.897C228.659 121.74 228.347 121.544 228.191 121.23C228.152 121.191 228.152 121.152 228.152 121.074C234.934 120.093 241.716 119.152 248.498 118.093Z" fill="#046CFC"/>
<path d="M165.631 157.707C162.903 152.844 158.304 148.098 152.769 148.608C145.675 149.235 142.167 157.629 136.203 161.512C130.512 165.238 122.795 164.493 116.831 161.238C110.868 158.021 106.307 152.687 102.215 147.235C90.0145 131.153 80.3091 113.228 67.7972 97.3819C55.2853 81.5357 39.0706 67.4546 19.4258 63.0615C16.5024 62.3947 13.3452 62.0025 10.6168 63.1792C5.47171 65.4149 2.78223 90.4394 2.86018 96.872C3.17201 123.897 9.87619 151.196 24.4149 173.907C38.9536 196.617 61.7167 214.464 87.8708 220.582C104.047 224.348 121.353 223.367 136.944 217.641C144.739 214.777 152.106 210.737 158.576 205.56C165.164 200.304 168.555 193.597 170.036 185.203C171.673 175.907 170.231 165.984 165.631 157.707Z" fill="#81B5FD"/>
<path fill-rule="evenodd" clip-rule="evenodd" d="M11.617 65.4707C13.5535 64.64 16.0101 64.847 18.8697 65.4992L18.8801 65.5016C37.7146 69.7134 53.479 83.2827 65.835 98.9315C72.011 106.753 77.5082 115.106 83.0276 123.584C83.3578 124.092 83.6881 124.599 84.0186 125.107C89.1929 133.061 94.4249 141.103 100.219 148.741C104.336 154.226 109.168 159.943 115.639 163.435C122.128 166.976 130.874 167.988 137.57 163.606C139.298 162.48 140.79 161.067 142.12 159.67C142.788 158.968 143.436 158.248 144.055 157.558L144.142 157.462C144.738 156.798 145.307 156.163 145.881 155.554C148.346 152.939 150.436 151.324 152.989 151.098L152.998 151.097C154.941 150.918 156.854 151.639 158.699 153.102C160.555 154.573 162.193 156.689 163.449 158.926C167.748 166.665 169.118 175.999 167.574 184.769C166.176 192.688 163.038 198.802 157.017 203.606L157.014 203.608C150.77 208.605 143.644 212.517 136.082 215.294C120.957 220.849 104.149 221.805 88.4402 218.148C63.0109 212.199 40.7618 194.805 26.5203 172.559C12.2802 150.315 5.6674 123.495 5.35989 96.8435L5.35988 96.842C5.32339 93.8305 5.95291 86.1308 7.24107 78.89C7.88393 75.2765 8.67177 71.8898 9.58063 69.3147C10.0365 68.0231 10.4929 67.0226 10.9266 66.3245C11.3179 65.6946 11.5698 65.5071 11.6125 65.4753C11.6191 65.4704 11.6207 65.4692 11.617 65.4707ZM87.871 220.581L87.8707 220.583L87.871 220.581L136.203 161.513L136.203 161.512M19.9763 60.6232C16.9951 59.9436 13.1433 59.3672 9.62663 60.8839L9.62032 60.8866C8.28395 61.4673 7.34303 62.6177 6.67937 63.6861C5.98148 64.8096 5.38426 66.1812 4.86568 67.6506C3.82564 70.5974 2.98129 74.288 2.31837 78.0142C0.995026 85.4527 0.318787 93.4815 0.360245 96.9026C0.676605 124.301 7.47214 152.078 22.3093 175.255C37.1452 198.429 60.4221 216.729 87.3011 223.017L87.3038 223.018C103.945 226.891 121.748 225.885 137.806 219.988C145.835 217.039 153.442 212.871 160.138 207.512C167.29 201.804 170.933 194.505 172.498 185.638L172.498 185.637C174.227 175.817 172.714 165.306 167.817 156.493L167.812 156.485C166.339 153.86 164.314 151.173 161.806 149.184C159.286 147.186 156.133 145.789 152.544 146.118C148.005 146.521 144.796 149.416 142.243 152.125C141.625 152.78 141.018 153.456 140.433 154.108L140.334 154.219C139.711 154.913 139.109 155.581 138.499 156.222C137.273 157.51 136.092 158.602 134.839 159.417L134.834 159.421C130.15 162.488 123.465 162.011 118.029 159.043L118.018 159.037C112.567 156.097 108.28 151.151 104.214 145.734L104.206 145.724C98.524 138.234 93.3833 130.333 88.1851 122.343C87.863 121.848 87.5406 121.352 87.2179 120.856C81.7065 112.39 76.0951 103.857 69.7592 95.833C57.0925 79.7907 40.4291 65.1987 19.9763 60.6232Z" fill="#046CFC"/>
<path d="M240.703 114.797C237.546 115.032 232.946 115.778 229.672 116.523C229.243 116.601 228.776 116.366 228.62 115.934C228.113 114.679 228.62 113.11 229.165 111.816C230.568 108.521 232.322 105.383 234.349 102.481C234.817 101.775 235.908 102.049 236.025 102.873C236.259 104.481 235.558 106.364 235.012 108.011C234.232 110.286 234.349 113.581 236.649 114.13C237.351 114.287 238.091 114.13 238.793 114.287C239.494 114.444 240.976 114.13 240.703 114.797Z" fill="#81B5FD"/>
<path d="M255.202 50.1795L263.202 44.9326L268.416 52.9836L260.416 58.2305L255.202 50.1795Z" fill="#046CFC"/>
<path d="M241.883 47.3318L249.901 42.1128L255.143 50.1456L247.125 55.3646L241.883 47.3318Z" fill="#046CFC"/>
<path d="M233.834 52.6551L241.834 47.4082L247.049 55.4592L239.048 60.7061L233.834 52.6551Z" fill="#046CFC"/>
<path d="M230.992 66.0374L238.993 60.7905L244.207 68.8415L236.206 74.0884L230.992 66.0374Z" fill="#046CFC"/>
<path d="M245.965 111.543C243.158 107.189 240.391 102.835 237.584 98.4814L245.965 111.543Z" fill="#DEEBFC"/>
<path fill-rule="evenodd" clip-rule="evenodd" d="M237.043 97.6411C236.579 97.9403 236.445 98.5591 236.744 99.0234C238.146 101.199 239.539 103.374 240.932 105.551L240.933 105.552C242.326 107.729 243.72 109.907 245.124 112.085C245.423 112.549 246.042 112.683 246.507 112.383C246.971 112.084 247.104 111.465 246.805 111.001C245.403 108.826 244.01 106.65 242.617 104.473L242.616 104.472C241.223 102.296 239.829 100.118 238.425 97.9398C238.126 97.4756 237.507 97.3418 237.043 97.6411Z" fill="#046CFC"/>
<path fill-rule="evenodd" clip-rule="evenodd" d="M274.486 81.211C274.486 81.2111 274.486 81.211 274.486 81.211L274.471 81.2303L274.421 81.296C274.377 81.3547 274.31 81.4427 274.222 81.5568C274.047 81.7852 273.79 82.1178 273.466 82.5294C272.816 83.3537 271.903 84.4906 270.845 85.7399C268.692 88.2821 266.073 91.1317 263.912 92.8255C262.825 93.6771 262.634 95.2485 263.486 96.3353C264.338 97.4221 265.909 97.6127 266.996 96.7611C269.589 94.7287 272.487 91.5379 274.66 88.9712C275.765 87.6661 276.718 86.4815 277.394 85.6228C277.732 85.193 278.002 84.8438 278.189 84.6007C278.282 84.4791 278.355 84.384 278.404 84.3185L278.462 84.2428L278.483 84.2149C278.483 84.2147 278.483 84.214 276.484 82.7125L278.483 84.214C279.313 83.11 279.09 81.5428 277.986 80.7136C276.882 79.8844 275.315 80.1072 274.486 81.211Z" fill="#046CFC"/>
<path d="M214.164 170.444C205.272 169.574 198.515 164.201 199.071 158.445C199.628 152.688 207.287 148.727 216.178 149.597C225.07 150.467 231.827 155.839 231.271 161.596C230.714 167.352 223.055 171.314 214.164 170.444Z" fill="#DEEBFC"/>
<path fill-rule="evenodd" clip-rule="evenodd" d="M226.335 154.938C228.822 156.915 229.991 159.247 229.778 161.45C229.565 163.653 227.972 165.714 225.153 167.172C222.35 168.622 218.509 169.362 214.308 168.951C210.107 168.54 206.48 167.069 204.007 165.103C201.52 163.126 200.351 160.794 200.564 158.591C200.777 156.388 202.37 154.327 205.189 152.869C207.992 151.419 211.833 150.679 216.034 151.09C220.235 151.501 223.862 152.972 226.335 154.938ZM228.2 152.59C225.211 150.214 221.013 148.563 216.323 148.104C211.632 147.645 207.197 148.451 203.809 150.203C200.436 151.948 197.922 154.745 197.578 158.299C197.235 161.853 199.167 165.085 202.142 167.451C205.132 169.827 209.329 171.478 214.02 171.937C218.71 172.396 223.145 171.59 226.533 169.838C229.906 168.093 232.42 165.296 232.764 161.742C233.107 158.188 231.175 154.956 228.2 152.59Z" fill="#046CFC"/>
<path d="M214.601 165.916C209.588 165.425 205.778 162.388 206.093 159.133C206.408 155.877 210.727 153.636 215.741 154.126C220.754 154.617 224.564 157.654 224.249 160.91C223.934 164.165 219.615 166.407 214.601 165.916Z" fill="#046CFC"/>
<path opacity="0.57" d="M138.464 112.953C138.854 115.228 141.348 116.562 143.414 115.503C146.026 114.169 149.144 113.699 152.106 113.856C156.706 114.091 161.149 115.581 165.709 116.248C167.463 116.523 169.334 116.68 171.01 115.974C172.647 115.268 174.012 113.542 173.661 111.777C173.466 110.718 172.725 109.855 172.024 109.07C167.814 104.442 163.566 99.6568 162.162 93.5771C159.863 83.7713 159.863 75.7698 160.642 69.3371C161.422 63.0222 153.392 59.649 149.534 64.7088C146.688 68.3958 144.272 72.3966 142.479 76.9072C137.879 88.282 136.437 100.873 138.464 112.953Z" fill="#81B5FD"/>
<path d="M45.8526 193.127C48.4641 195.873 51.4265 198.619 55.1683 199.207C37.3555 173.79 19.0359 147.197 14.0468 116.485C12.9554 109.856 12.5266 103.149 12.2148 96.442C11.942 90.5585 12.9554 83.5375 11.864 77.8109C10.7337 72.0059 9.09658 74.0847 8.43396 79.1445C7.14769 89.068 7.1477 99.2269 8.12214 109.15C10.071 129.272 16.2685 149.001 26.2078 166.534C31.6258 176.144 38.213 185.126 45.8526 193.127Z" fill="#DEEBFC"/>
<path d="M197.83 84.3258L206.157 78.8647L211.584 87.2444L203.257 92.7054L197.83 84.3258Z" fill="#046CFC"/>
<path d="M184.02 81.4017L192.366 75.9697L197.822 84.3304L189.476 89.7624L184.02 81.4017Z" fill="#046CFC"/>
<path d="M175.662 86.9293L183.989 81.4683L189.416 89.8479L181.088 95.3089L175.662 86.9293Z" fill="#046CFC"/>
<path d="M172.724 100.771L181.051 95.3096L186.478 103.689L178.151 109.15L172.724 100.771Z" fill="#046CFC"/>
<path fill-rule="evenodd" clip-rule="evenodd" d="M286.355 144.996C285.876 144.001 284.681 143.582 283.686 144.061C278.298 146.652 273.124 149.674 268.021 152.693L268.018 152.694C247.491 164.885 226.66 177.807 210.45 195.83L210.449 195.831C208.646 197.838 206.344 200.571 205.901 204.001C205.593 206.234 206.147 208.429 206.576 210.129C206.613 210.273 206.648 210.414 206.682 210.551C208.548 218.178 210.328 226.046 211.641 233.743C212.7 240.099 213.386 246.326 211.114 251.603L211.113 251.605C208.114 258.589 200.541 262.566 192.703 265.975C191.69 266.415 191.226 267.593 191.667 268.606C192.107 269.619 193.285 270.083 194.298 269.643C201.973 266.305 211.083 261.81 214.788 253.184M286.355 144.996C286.834 145.992 286.415 147.187 285.42 147.666L286.355 144.996ZM285.42 147.666C280.206 150.173 275.168 153.113 270.059 156.135L285.42 147.666ZM270.059 156.135C249.505 168.341 229.176 180.991 213.424 198.505C211.566 200.574 210.13 202.466 209.867 204.52L209.864 204.542C209.665 205.975 210.032 207.447 210.502 209.338C210.523 209.421 210.544 209.505 210.565 209.59L210.567 209.597C212.442 217.264 214.248 225.239 215.585 233.073L215.586 233.081C216.631 239.352 217.582 246.694 214.788 253.183" fill="#046CFC"/>
<path d="M298 186.617L254.579 220.623L251.733 271.574L284.514 291.578L298 186.617Z" fill="#DEEBFC"/>
<path d="M127.121 218.464C124.978 218.974 122.366 219.523 119.638 219.876C126.069 213.091 130.162 204.069 131.019 194.734C131.916 185.085 127.355 173.593 121.781 165.474C126.186 166.846 129.694 166.376 131.838 165.748C137.723 173.946 141.855 184.968 140.335 194.852C138.932 203.991 134.098 212.502 127.121 218.464Z" fill="#046CFC"/>
</g>
</svg>
